<svg width="64" height="65" viewBox="0 0 64 65" fill="none" xmlns="http://www.w3.org/2000/svg">
<rect width="64" height="65" rx="10" fill="#2C3033"/>
<path d="M32 18.6667L20 28V42.6667C20 43.3739 20.281 44.0522 20.781 44.5523C21.2811 45.0524 21.9594 45.3334 22.6667 45.3334H28V32.0001H36V45.3334H41.3333C42.0406 45.3334 42.7189 45.0524 43.219 44.5523C43.719 44.0522 44 43.3739 44 42.6667V28L32 18.6667Z" fill="url(#paint0_linear_95_2217)"/>
<path d="M20 28L19.1814 26.9476C18.8566 27.2002 18.6667 27.5886 18.6667 28H20ZM32 18.6667L32.8186 17.6142C32.3371 17.2397 31.6629 17.2397 31.1814 17.6142L32 18.6667ZM44 28H45.3333C45.3333 27.5886 45.1434 27.2002 44.8186 26.9476L44 28ZM20.781 44.5523L19.8382 45.4951H19.8382L20.781 44.5523ZM28 45.3334V46.6667C28.7364 46.6667 29.3333 46.0697 29.3333 45.3334H28ZM36 45.3334H34.6667C34.6667 46.0697 35.2636 46.6667 36 46.6667V45.3334ZM36 32.0001H37.3333C37.3333 31.2637 36.7364 30.6667 36 30.6667V32.0001ZM28 32.0001V30.6667C27.2636 30.6667 26.6667 31.2637 26.6667 32.0001H28ZM20.8186 29.0525L32.8186 19.7192L31.1814 17.6142L19.1814 26.9476L20.8186 29.0525ZM31.1814 19.7192L43.1814 29.0525L44.8186 26.9476L32.8186 17.6142L31.1814 19.7192ZM42.6667 28V42.6667H45.3333V28H42.6667ZM42.6667 42.6667C42.6667 43.0203 42.5262 43.3594 42.2761 43.6095L44.1618 45.4951C44.9119 44.745 45.3333 43.7276 45.3333 42.6667H42.6667ZM42.2761 43.6095C42.0261 43.8595 41.687 44 41.3333 44V46.6667C42.3942 46.6667 43.4116 46.2453 44.1618 45.4951L42.2761 43.6095ZM22.6667 44C22.313 44 21.9739 43.8595 21.7239 43.6095L19.8382 45.4951C20.5884 46.2453 21.6058 46.6667 22.6667 46.6667V44ZM21.7239 43.6095C21.4738 43.3594 21.3333 43.0203 21.3333 42.6667H18.6667C18.6667 43.7276 19.0881 44.745 19.8382 45.4951L21.7239 43.6095ZM21.3333 42.6667V28H18.6667V42.6667H21.3333ZM28 44H22.6667V46.6667H28V44ZM41.3333 44H36V46.6667H41.3333V44ZM37.3333 45.3334V32.0001H34.6667V45.3334H37.3333ZM36 30.6667H28V33.3334H36V30.6667ZM26.6667 32.0001V45.3334H29.3333V32.0001H26.6667Z" fill="#4BCD8D"/>
<defs>
<linearGradient id="paint0_linear_95_2217" x1="38" y1="23.5001" x2="21" y2="44.5001" gradientUnits="userSpaceOnUse">
<stop stop-color="#80FFC1"/>
<stop offset="1" stop-color="#50CC8F"/>
</linearGradient>
</defs>
</svg>
