<svg width="31" height="28" viewBox="0 0 31 28" fill="none" xmlns="http://www.w3.org/2000/svg">
<path d="M5.03677 16.3137L7.9889 24.77C8.18099 25.3065 8.55628 25.7581 9.04865 26.045C9.54101 26.332 10.1189 26.436 10.6804 26.3387C11.2419 26.2414 11.7511 25.9491 12.1182 25.5132C12.4853 25.0773 12.6869 24.5259 12.6873 23.956V16.913M22.3123 15.376V7.12598M26.0623 6.50098L29.0623 3.50098M26.0623 10.501H29.0623M26.0623 15.376L29.0623 18.376M5.03677 16.3151C3.8697 15.8189 2.9099 14.9347 2.31981 13.8121C1.72973 12.6896 1.54559 11.3977 1.79856 10.155C2.05153 8.91226 2.72608 7.79512 3.70804 6.9926C4.69001 6.19008 5.91908 5.75146 7.18727 5.75098H9.70627C15.3438 5.75098 20.1906 4.05423 22.3123 1.62598V20.876C20.1906 18.4477 15.3451 16.751 9.70627 16.751H7.18727C6.44839 16.7521 5.71692 16.6038 5.03677 16.3151Z" stroke="#171721" stroke-width="2.75" stroke-linecap="round" stroke-linejoin="round"/>
</svg>
