<svg width="24" height="24" viewBox="0 0 24 24" fill="none" xmlns="http://www.w3.org/2000/svg">
<path d="M16.375 2H7.621C7.397 2 6.222 2.065 5.118 3.351C4.031 4.616 4 5.862 4 6V17C4 17.5304 4.21071 18.0391 4.58579 18.4142C4.96086 18.7893 5.46957 19 6 19H7L5 22H7.353L8.02 21H16.02L16.697 22H19L17 19H18C18.5304 19 19.0391 18.7893 19.4142 18.4142C19.7893 18.0391 20 17.5304 20 17V6C20.001 5.812 19.968 4.566 18.871 3.335C17.715 2.037 16.509 2 16.375 2ZM10 4H14V6H10V4ZM7.5 17C7.10204 16.9999 6.72044 16.8417 6.43913 16.5602C6.15783 16.2787 5.99987 15.897 6 15.499C6.00013 15.101 6.15835 14.7194 6.43984 14.4381C6.72133 14.1568 7.10304 13.9989 7.501 13.999C7.89896 13.9991 8.28056 14.1573 8.56187 14.4388C8.84317 14.7203 9.00113 15.102 9.001 15.5C9.00087 15.898 8.84265 16.2796 8.56116 16.5609C8.27967 16.8422 7.89796 17.0001 7.5 17ZM16.5 17C16.102 16.9999 15.7204 16.8417 15.4391 16.5602C15.1578 16.2787 14.9999 15.897 15 15.499C15.0001 15.101 15.1583 14.7194 15.4398 14.4381C15.7213 14.1568 16.103 13.9989 16.501 13.999C16.899 13.9991 17.2806 14.1573 17.5619 14.4388C17.8432 14.7203 18.0011 15.102 18.001 15.5C18.0009 15.898 17.8427 16.2796 17.5612 16.5609C17.2797 16.8422 16.898 17.0001 16.5 17ZM18 12H6V8H18V12Z" fill="black"/>
</svg>
