<svg width="24" height="24" viewBox="0 0 24 24" fill="none" xmlns="http://www.w3.org/2000/svg">
<path d="M13.5069 2.1381C13.3277 2.03299 13.1201 1.98633 12.9131 2.00461C12.7061 2.02289 12.51 2.1052 12.3519 2.2401L4.19593 9.1971C1.27193 12.1211 1.27193 16.8791 4.19593 19.8031C4.89144 20.4995 5.7177 21.0517 6.62724 21.4279C7.53678 21.804 8.51167 21.9968 9.49593 21.9951C11.4199 21.9951 13.3459 21.2611 14.8129 19.7931L21.7159 12.6971C21.8529 12.5562 21.9453 12.3781 21.9816 12.185C22.0179 11.9919 21.9966 11.7924 21.9202 11.6114C21.8438 11.4303 21.7158 11.2758 21.5521 11.1671C21.3885 11.0584 21.1964 11.0003 20.9999 11.0001H17.6989L21.8739 3.4861C21.9785 3.29617 22.0186 3.07743 21.9881 2.86278C21.9577 2.64813 21.8583 2.44916 21.7051 2.2958C21.5519 2.14244 21.353 2.04298 21.1383 2.01238C20.9237 1.98178 20.7049 2.02168 20.5149 2.1261L13.4049 6.0761L13.9809 3.1971C14.0215 2.99322 13.9977 2.78175 13.9128 2.59201C13.8279 2.40227 13.686 2.24363 13.5069 2.1381ZM13.9999 14.5001C13.9999 15.6936 13.5258 16.8382 12.6819 17.6821C11.838 18.526 10.6934 19.0001 9.49993 19.0001C8.30646 19.0001 7.16186 18.526 6.31795 17.6821C5.47404 16.8382 4.99993 15.6936 4.99993 14.5001C4.99993 12.9301 5.80693 11.5511 7.02493 10.7461C7.01493 10.8301 6.99993 10.9131 6.99993 11.0001C6.99993 11.2961 7.06565 11.5885 7.19234 11.856C7.31903 12.1236 7.50353 12.3597 7.73253 12.5473C7.96154 12.7348 8.22933 12.8693 8.51658 12.9408C8.80384 13.0123 9.10339 13.0192 9.39363 12.961C9.68387 12.9027 9.95755 12.7807 10.1949 12.6038C10.4323 12.4269 10.6275 12.1996 10.7663 11.9381C10.9051 11.6767 10.9842 11.3877 10.9978 11.092C11.0114 10.7962 10.9592 10.5012 10.8449 10.2281C12.6689 10.8021 13.9999 12.4861 13.9999 14.5001Z" fill="black"/>
</svg>
