<svg width="24" height="24" viewBox="0 0 24 24" fill="none" xmlns="http://www.w3.org/2000/svg">
<path d="M21.5121 6.11192L17.6221 10.0009L14.0871 6.46492L17.9761 2.57592C16.7894 2.0881 15.485 1.96229 14.2271 2.21433C12.9691 2.46637 11.8138 3.08499 10.9068 3.99229C9.99968 4.89959 9.38133 6.055 9.12958 7.31302C8.87784 8.57104 9.00396 9.87543 9.49205 11.0619L3.21605 17.3369C3.12311 17.4297 3.04937 17.5399 2.99906 17.6612C2.94875 17.7825 2.92285 17.9126 2.92285 18.0439C2.92285 18.1753 2.94875 18.3053 2.99906 18.4266C3.04937 18.5479 3.12311 18.6581 3.21605 18.7509L5.33805 20.8729C5.43084 20.9659 5.54104 21.0396 5.66236 21.0899C5.78367 21.1402 5.91372 21.1661 6.04505 21.1661C6.17639 21.1661 6.30643 21.1402 6.42775 21.0899C6.54906 21.0396 6.65926 20.9659 6.75205 20.8729L13.0271 14.5969C14.2137 15.0854 15.5183 15.2118 16.7766 14.9602C18.0349 14.7085 19.1906 14.0902 20.0981 13.1829C21.005 12.2752 21.6231 11.1195 21.8747 9.86132C22.1263 8.60311 22.0001 7.29858 21.5121 6.11192Z" fill="black"/>
</svg>
