<svg width="24" height="24" viewBox="0 0 24 24" fill="none" xmlns="http://www.w3.org/2000/svg">
<path d="M18.3279 4.25795C16.6425 2.88288 14.5529 2.09785 12.3789 2.02295C12.5902 3.27 12.536 4.5476 12.2198 5.77226C11.9036 6.99692 11.3326 8.14107 10.5439 9.12995L11.9999 10.5859L18.3279 4.25795ZM7.70095 9.11495L4.25795 5.67195C3.15234 7.02682 2.42382 8.64944 2.14595 10.3759C3.10856 10.5664 4.10044 10.5526 5.05737 10.3354C6.0143 10.1182 6.91494 9.70239 7.70095 9.11495ZM19.7419 5.67195L13.4139 11.9999L14.8699 13.4559C15.8589 12.6675 17.0031 12.0966 18.2277 11.7804C19.4523 11.4642 20.7299 11.4098 21.9769 11.6209C21.902 9.447 21.117 7.35744 19.7419 5.67195ZM21.8539 13.6239C20.8913 13.4335 19.8995 13.4473 18.9425 13.6645C17.9856 13.8817 17.085 14.2975 16.2989 14.8849L19.7419 18.3279C20.8481 16.9734 21.5767 15.3506 21.8539 13.6239ZM9.11495 7.70095C9.70239 6.91494 10.1182 6.0143 10.3354 5.05737C10.5526 4.10044 10.5664 3.10856 10.3759 2.14595C8.6493 2.42336 7.02657 3.15194 5.67195 4.25795L9.11495 7.70095ZM13.6239 21.8539C15.3504 21.5765 16.973 20.8483 18.3279 19.7429L14.8849 16.2999C14.2974 17.0857 13.8816 17.9862 13.6643 18.943C13.4471 19.8998 13.4333 20.8915 13.6239 21.8539ZM11.9999 13.4139L5.67195 19.7419C7.35744 21.117 9.447 21.902 11.6209 21.9769C11.4097 20.7299 11.4639 19.4523 11.7801 18.2276C12.0963 17.003 12.6673 15.8588 13.4559 14.8699L11.9999 13.4139ZM4.25795 18.3279L10.5859 11.9999L9.12995 10.5439C8.14098 11.3324 6.99682 11.9033 5.77219 12.2195C4.54755 12.5357 3.27 12.5901 2.02295 12.3789C2.09785 14.5529 2.88288 16.6425 4.25795 18.3279Z" fill="black"/>
</svg>
