<svg width="24" height="24" viewBox="0 0 24 24" fill="none" xmlns="http://www.w3.org/2000/svg">
<path d="M20.772 10.155L19.404 6.051C19.2056 5.45348 18.8238 4.9337 18.3131 4.56551C17.8024 4.19732 17.1886 3.99944 16.559 4H7.441C6.81139 3.99944 6.19761 4.19732 5.68688 4.56551C5.17615 4.9337 4.79445 5.45348 4.596 6.051L3.228 10.155C2.86422 10.3072 2.55356 10.5636 2.33507 10.8918C2.11657 11.2201 2 11.6057 2 12V17C2 17.738 2.404 18.376 3 18.723V21C3 21.2652 3.10536 21.5196 3.29289 21.7071C3.48043 21.8946 3.73478 22 4 22H5C5.26522 22 5.51957 21.8946 5.70711 21.7071C5.89464 21.5196 6 21.2652 6 21V19H18V21C18 21.2652 18.1054 21.5196 18.2929 21.7071C18.4804 21.8946 18.7348 22 19 22H20C20.2652 22 20.5196 21.8946 20.7071 21.7071C20.8946 21.5196 21 21.2652 21 21V18.723C21.3034 18.549 21.5556 18.2981 21.7311 17.9956C21.9067 17.6932 21.9994 17.3497 22 17V12C22 11.6057 21.8834 11.2201 21.6649 10.8918C21.4464 10.5636 21.1358 10.3072 20.772 10.155ZM7.441 6H16.558C16.989 6 17.371 6.274 17.507 6.684L18.613 10H5.387L6.492 6.684C6.55835 6.4848 6.68572 6.31153 6.85605 6.18876C7.02638 6.06599 7.23104 5.99995 7.441 6ZM5.5 16C5.30295 15.9999 5.10785 15.9611 4.92582 15.8856C4.7438 15.8101 4.57842 15.6995 4.43913 15.5602C4.29984 15.4208 4.18937 15.2553 4.11403 15.0733C4.03868 14.8912 3.99993 14.696 4 14.499C4.00007 14.302 4.03894 14.1068 4.11441 13.9248C4.18988 13.7428 4.30046 13.5774 4.43984 13.4381C4.57922 13.2988 4.74467 13.1884 4.92675 13.113C5.10882 13.0377 5.30395 12.9989 5.501 12.999C5.89896 12.9991 6.28056 13.1573 6.56187 13.4388C6.84317 13.7203 7.00113 14.102 7.001 14.5C7.00087 14.898 6.84265 15.2796 6.56116 15.5609C6.27967 15.8422 5.89796 16.0001 5.5 16ZM18.5 16C18.303 15.9999 18.1078 15.9611 17.9258 15.8856C17.7438 15.8101 17.5784 15.6995 17.4391 15.5602C17.2998 15.4208 17.1894 15.2553 17.114 15.0733C17.0387 14.8912 16.9999 14.696 17 14.499C17.0001 14.302 17.0389 14.1068 17.1144 13.9248C17.1899 13.7428 17.3005 13.5774 17.4398 13.4381C17.5792 13.2988 17.7447 13.1884 17.9267 13.113C18.1088 13.0377 18.304 12.9989 18.501 12.999C18.899 12.9991 19.2806 13.1573 19.5619 13.4388C19.8432 13.7203 20.0011 14.102 20.001 14.5C20.0009 14.898 19.8427 15.2796 19.5612 15.5609C19.2797 15.8422 18.898 16.0001 18.5 16Z" fill="black"/>
</svg>
