<svg width="24" height="24" viewBox="0 0 24 24" fill="none" xmlns="http://www.w3.org/2000/svg">
<path d="M18.618 7.46198L6.403 2.08498C6.15859 1.97783 5.88165 1.97208 5.633 2.06898C5.51012 2.11766 5.39809 2.19017 5.30335 2.28233C5.20861 2.3745 5.13305 2.48449 5.081 2.60598L2.081 9.60598C1.97653 9.84972 1.97315 10.125 2.07161 10.3712C2.17006 10.6174 2.36228 10.8145 2.606 10.919L9.563 13.9L8.323 17H4V14H2V22H4V19H8.323C9.146 19 9.875 18.506 10.179 17.742L11.401 14.688L14.82 16.153C15.0626 16.2573 15.3367 16.2613 15.5823 16.1643C15.8279 16.0672 16.0252 15.8769 16.131 15.635L19.131 8.77798C19.2371 8.5354 19.2427 8.26063 19.1466 8.01392C19.0504 7.76722 18.8603 7.56873 18.618 7.46198ZM19.93 16.372L18.072 15.63L20.07 10.63L21.928 11.371L19.93 16.372Z" fill="black"/>
</svg>
