<svg width="31" height="24" viewBox="0 0 31 24" fill="none" xmlns="http://www.w3.org/2000/svg">
<path d="M1.75049 9H28.7505H1.75049ZM7.75049 16.5H9.25049H7.75049ZM15.2505 16.5H16.7505H15.2505ZM6.25049 22.5H24.2505C25.444 22.5 26.5886 22.0259 27.4325 21.182C28.2764 20.3381 28.7505 19.1935 28.7505 18V6C28.7505 4.80653 28.2764 3.66193 27.4325 2.81802C26.5886 1.97411 25.444 1.5 24.2505 1.5H6.25049C5.05701 1.5 3.91242 1.97411 3.06851 2.81802C2.22459 3.66193 1.75049 4.80653 1.75049 6V18C1.75049 19.1935 2.22459 20.3381 3.06851 21.182C3.91242 22.0259 5.05701 22.5 6.25049 22.5Z" stroke="#171721" stroke-width="3" stroke-linecap="round" stroke-linejoin="round"/>
</svg>
