<svg width="33" height="26" viewBox="0 0 33 26" fill="none" xmlns="http://www.w3.org/2000/svg">
<path d="M24.1042 8.25008V5.08341C24.1042 4.24356 23.7705 3.43811 23.1767 2.84424C22.5828 2.25038 21.7774 1.91675 20.9375 1.91675H5.10417C4.26431 1.91675 3.45886 2.25038 2.865 2.84424C2.27113 3.43811 1.9375 4.24356 1.9375 5.08341V14.5834C1.9375 15.4233 2.27113 16.2287 2.865 16.8226C3.45886 17.4165 4.26431 17.7501 5.10417 17.7501H8.27083M11.4375 24.0834H27.2708C28.1107 24.0834 28.9161 23.7498 29.51 23.1559C30.1039 22.5621 30.4375 21.7566 30.4375 20.9167V11.4167C30.4375 10.5769 30.1039 9.77144 29.51 9.17758C28.9161 8.58371 28.1107 8.25008 27.2708 8.25008H11.4375C10.5976 8.25008 9.79219 8.58371 9.19833 9.17758C8.60446 9.77144 8.27083 10.5769 8.27083 11.4167V20.9167C8.27083 21.7566 8.60446 22.5621 9.19833 23.1559C9.79219 23.7498 10.5976 24.0834 11.4375 24.0834ZM22.5208 16.1667C22.5208 17.0066 22.1872 17.8121 21.5933 18.4059C20.9995 18.9998 20.194 19.3334 19.3542 19.3334C18.5143 19.3334 17.7089 18.9998 17.115 18.4059C16.5211 17.8121 16.1875 17.0066 16.1875 16.1667C16.1875 15.3269 16.5211 14.5214 17.115 13.9276C17.7089 13.3337 18.5143 13.0001 19.3542 13.0001C20.194 13.0001 20.9995 13.3337 21.5933 13.9276C22.1872 14.5214 22.5208 15.3269 22.5208 16.1667Z" stroke="#171721" stroke-width="3.16667" stroke-linecap="round" stroke-linejoin="round"/>
</svg>
