<svg width="24" height="24" viewBox="0 0 24 24" fill="none" xmlns="http://www.w3.org/2000/svg">
<path d="M2 4.5C2 3.83696 2.26339 3.20107 2.73223 2.73223C3.20107 2.26339 3.83696 2 4.5 2H7C7.66304 2 8.29893 2.26339 8.76777 2.73223C9.23661 3.20107 9.5 3.83696 9.5 4.5V7C9.5 7.66304 9.23661 8.29893 8.76777 8.76777C8.29893 9.23661 7.66304 9.5 7 9.5H4.5C3.83696 9.5 3.20107 9.23661 2.73223 8.76777C2.26339 8.29893 2 7.66304 2 7V4.5ZM14.5 4.5C14.5 3.83696 14.7634 3.20107 15.2322 2.73223C15.7011 2.26339 16.337 2 17 2H19.5C20.163 2 20.7989 2.26339 21.2678 2.73223C21.7366 3.20107 22 3.83696 22 4.5V7C22 7.66304 21.7366 8.29893 21.2678 8.76777C20.7989 9.23661 20.163 9.5 19.5 9.5H17C16.337 9.5 15.7011 9.23661 15.2322 8.76777C14.7634 8.29893 14.5 7.66304 14.5 7V4.5ZM2 17C2 16.337 2.26339 15.7011 2.73223 15.2322C3.20107 14.7634 3.83696 14.5 4.5 14.5H7C7.66304 14.5 8.29893 14.7634 8.76777 15.2322C9.23661 15.7011 9.5 16.337 9.5 17V19.5C9.5 20.163 9.23661 20.7989 8.76777 21.2678C8.29893 21.7366 7.66304 22 7 22H4.5C3.83696 22 3.20107 21.7366 2.73223 21.2678C2.26339 20.7989 2 20.163 2 19.5V17ZM14.5 17C14.5 16.337 14.7634 15.7011 15.2322 15.2322C15.7011 14.7634 16.337 14.5 17 14.5H19.5C20.163 14.5 20.7989 14.7634 21.2678 15.2322C21.7366 15.7011 22 16.337 22 17V19.5C22 20.163 21.7366 20.7989 21.2678 21.2678C20.7989 21.7366 20.163 22 19.5 22H17C16.337 22 15.7011 21.7366 15.2322 21.2678C14.7634 20.7989 14.5 20.163 14.5 19.5V17Z" stroke="#171721" stroke-width="2.5" stroke-linecap="round" stroke-linejoin="round"/>
</svg>
