<svg width="33" height="30" viewBox="0 0 33 30" fill="none" xmlns="http://www.w3.org/2000/svg">
<path d="M10.2297 21.3333V22.9166C10.2297 24.1764 10.7301 25.3845 11.6209 26.2753C12.5117 27.1661 13.7199 27.6666 14.9797 27.6666H26.063C27.3228 27.6666 28.5309 27.1661 29.4217 26.2753C30.3125 25.3845 30.813 24.1764 30.813 22.9166V7.08325C30.813 5.82347 30.3125 4.61529 29.4217 3.72449C28.5309 2.8337 27.3228 2.33325 26.063 2.33325H14.9797C13.7199 2.33325 12.5117 2.8337 11.6209 3.72449C10.7301 4.61529 10.2297 5.82347 10.2297 7.08325V8.66658M18.1463 21.3333L24.4797 14.9999L18.1463 21.3333ZM24.4797 14.9999L18.1463 8.66658L24.4797 14.9999ZM24.4797 14.9999H2.31299H24.4797Z" stroke="#171721" stroke-width="3.33333" stroke-linecap="round" stroke-linejoin="round"/>
</svg>
