<svg width="31" height="30" viewBox="0 0 31 30" fill="none" xmlns="http://www.w3.org/2000/svg">
<path d="M5.5565 23.706C8.70412 21.9269 12.2594 20.9945 15.875 21C19.625 21 23.1455 21.9825 26.1935 23.706M20.375 12C20.375 13.1935 19.9009 14.3381 19.057 15.182C18.2131 16.0259 17.0685 16.5 15.875 16.5C14.6815 16.5 13.5369 16.0259 12.693 15.182C11.8491 14.3381 11.375 13.1935 11.375 12C11.375 10.8065 11.8491 9.66193 12.693 8.81802C13.5369 7.97411 14.6815 7.5 15.875 7.5C17.0685 7.5 18.2131 7.97411 19.057 8.81802C19.9009 9.66193 20.375 10.8065 20.375 12ZM29.375 15C29.375 16.7728 29.0258 18.5283 28.3474 20.1662C27.6689 21.8041 26.6745 23.2923 25.4209 24.5459C24.1673 25.7995 22.6791 26.7939 21.0412 27.4724C19.4033 28.1508 17.6478 28.5 15.875 28.5C14.1022 28.5 12.3467 28.1508 10.7088 27.4724C9.07088 26.7939 7.58265 25.7995 6.32906 24.5459C5.07547 23.2923 4.08106 21.8041 3.40263 20.1662C2.72419 18.5283 2.375 16.7728 2.375 15C2.375 11.4196 3.79732 7.9858 6.32906 5.45406C8.8608 2.92232 12.2946 1.5 15.875 1.5C19.4554 1.5 22.8892 2.92232 25.4209 5.45406C27.9527 7.9858 29.375 11.4196 29.375 15Z" stroke="#171721" stroke-width="3" stroke-linecap="round" stroke-linejoin="round"/>
</svg>
